<svg xmlns="http://www.w3.org/2000/svg" width="1400" height="520" viewBox="0 0 1400 520" role="img" aria-label="High-Level Workflow">
  <defs>
    <style>
      .box { fill: #ffffff; stroke: #1f2937; stroke-width: 2; }
      .title { font: 600 16px ui-sans-serif, system-ui, -apple-system, Segoe UI, Roboto, Helvetica, Arial, "Apple Color Emoji","Segoe UI Emoji"; fill: #111827; }
      .label { font: 500 14px ui-sans-serif, system-ui, -apple-system, Segoe UI, Roboto, Helvetica, Arial; fill: #111827; }
      .small { font: 500 13px ui-sans-serif, system-ui, -apple-system, Segoe UI, Roboto, Helvetica, Arial; fill: #374151; }
      .line { stroke: #1f2937; stroke-width: 2.25; fill: none; }
      .branch { stroke: #4b5563; stroke-width: 2.25; fill: none; }
    </style>
    <marker id="arrow" viewBox="0 0 10 10" refX="9" refY="5" markerWidth="8" markerHeight="8" orient="auto-start-reverse">
      <path d="M 0 0 L 10 5 L 0 10 z" fill="#1f2937"/>
    </marker>
    <marker id="arrowMuted" viewBox="0 0 10 10" refX="9" refY="5" markerWidth="8" markerHeight="8" orient="auto-start-reverse">
      <path d="M 0 0 L 10 5 L 0 10 z" fill="#4b5563"/>
    </marker>
  </defs>

  <!-- Header -->
  <text x="24" y="36" class="title">AI Dev Team  High-Level Workflow</text>
  <text x="24" y="60" class="small">Rendered SVG fallback (works in any Markdown previewer). Mermaid source is kept in the document.</text>

  <!-- Main pipeline boxes -->
  <!-- Layout constants: y=110, box=150x62, gap=25 -->
  <g transform="translate(24, 110)">
    <rect class="box" x="0" y="0" width="150" height="62" rx="10"/>
    <text class="label" x="75" y="26" text-anchor="middle">Human</text>
    <text class="small" x="75" y="46" text-anchor="middle">Solo founder</text>

    <rect class="box" x="175" y="0" width="150" height="62" rx="10"/>
    <text class="label" x="250" y="34" text-anchor="middle">GitHub Issue</text>

    <rect class="box" x="350" y="0" width="150" height="62" rx="10"/>
    <text class="label" x="425" y="34" text-anchor="middle">Architect</text>

    <rect class="box" x="525" y="0" width="150" height="62" rx="10"/>
    <text class="label" x="600" y="34" text-anchor="middle">Developer</text>

    <rect class="box" x="700" y="0" width="150" height="62" rx="10"/>
    <text class="label" x="775" y="34" text-anchor="middle">Reviewer</text>

    <rect class="box" x="875" y="0" width="150" height="62" rx="10"/>
    <text class="label" x="950" y="34" text-anchor="middle">Tester</text>

    <rect class="box" x="1050" y="0" width="150" height="62" rx="10"/>
    <text class="label" x="1125" y="34" text-anchor="middle">Documenter</text>

    <rect class="box" x="1225" y="0" width="150" height="62" rx="10"/>
    <text class="label" x="1300" y="34" text-anchor="middle">Output</text>

    <!-- Main arrows -->
    <path class="line" marker-end="url(#arrow)" d="M 150 31 L 175 31"/>
    <path class="line" marker-end="url(#arrow)" d="M 325 31 L 350 31"/>
    <path class="line" marker-end="url(#arrow)" d="M 500 31 L 525 31"/>
    <path class="line" marker-end="url(#arrow)" d="M 675 31 L 700 31"/>
    <path class="line" marker-end="url(#arrow)" d="M 850 31 L 875 31"/>
    <path class="line" marker-end="url(#arrow)" d="M 1025 31 L 1050 31"/>
    <path class="line" marker-end="url(#arrow)" d="M 1200 31 L 1225 31"/>
  </g>

  <!-- Output artifacts -->
  <g transform="translate(820, 245)">
    <rect class="box" x="0" y="0" width="170" height="62" rx="10"/>
    <text class="label" x="85" y="34" text-anchor="middle">Diff / Patch</text>

    <rect class="box" x="205" y="0" width="170" height="62" rx="10"/>
    <text class="label" x="290" y="34" text-anchor="middle">Updated Docs</text>

    <rect class="box" x="410" y="0" width="170" height="62" rx="10"/>
    <text class="label" x="495" y="34" text-anchor="middle">Logs &amp; Reports</text>
  </g>

  <!-- IDE box -->
  <g transform="translate(1080, 380)">
    <rect class="box" x="0" y="0" width="260" height="78" rx="12"/>
    <text class="label" x="130" y="34" text-anchor="middle">AI-native IDE</text>
    <text class="small" x="130" y="56" text-anchor="middle">Apply patch " review docs " inspect logs</text>
  </g>

  <!-- Branch connectors from Output to artifacts -->
  <!-- Output center = (24+1225+75, 110+31) = (1324, 141) -->
  <!-- Artifacts y = 245 + 31 = 276 -->
  <path class="branch" marker-end="url(#arrowMuted)" d="M 1324 141 C 1324 190, 905 190, 905 276"/>
  <path class="branch" marker-end="url(#arrowMuted)" d="M 1324 141 C 1324 200, 1110 200, 1110 276"/>
  <path class="branch" marker-end="url(#arrowMuted)" d="M 1324 141 C 1324 210, 1315 210, 1315 276"/>

  <!-- Connect artifacts to IDE -->
  <!-- IDE center y = 380+39 = 419; x range 1080..1340 -->
  <path class="branch" marker-end="url(#arrowMuted)" d="M 905 307 C 905 360, 1140 360, 1140 380"/>
  <path class="branch" marker-end="url(#arrowMuted)" d="M 1110 307 C 1110 360, 1210 360, 1210 380"/>
  <path class="branch" marker-end="url(#arrowMuted)" d="M 1315 307 C 1315 355, 1300 355, 1300 380"/>
</svg>
